<svg width="70" height="70" viewBox="0 0 70 70" fill="none" xmlns="http://www.w3.org/2000/svg">
<g clip-path="url(#clip0_23_4155)">
<path d="M16.05 5.89928L11.6995 1.48039L0 13.1793V21.82L0.0305566 21.8504L16.05 5.89928ZM7.34658 17.4998L11.6964 13.15L21.8457 23.2993L17.496 27.649L7.34658 17.4998ZM21.8504 34.9694L5.89928 18.95L1.48039 23.3005L13.1794 35H21.8198L21.8504 34.9694ZM13.1495 0.0304199L29.101 16.0503L33.5199 11.7L21.8209 0H13.1799L13.1495 0.0304199ZM13.1469 11.7007L17.4967 7.35096L27.6462 17.5003L23.2964 21.8501L13.1469 11.7007ZM23.3004 33.5195L35 21.8198V13.1198L18.95 29.1007L23.3004 33.5195ZM35 35V24.7198L24.7198 35H35ZM0 24.7199V35H10.2795L0 24.7199ZM34.9699 10.25L35 10.2199V0H24.7207L34.9699 10.25ZM0 0V10.2795L10.28 0H0Z" fill="#7142E1"/>
</g>
<g clip-path="url(#clip1_23_4155)">
<path d="M51.05 5.89928L46.6995 1.48039L35 13.1793V21.82L35.0306 21.8504L51.05 5.89928ZM42.3466 17.4998L46.6964 13.15L56.8457 23.2993L52.496 27.649L42.3466 17.4998ZM56.8504 34.9694L40.8993 18.95L36.4804 23.3005L48.1794 35H56.8198L56.8504 34.9694ZM48.1495 0.0304199L64.101 16.0503L68.5199 11.7L56.8209 0H48.1799L48.1495 0.0304199ZM48.1469 11.7007L52.4967 7.35096L62.6462 17.5003L58.2964 21.8501L48.1469 11.7007ZM58.3004 33.5195L70 21.8198V13.1198L53.95 29.1007L58.3004 33.5195ZM70 35V24.7198L59.7198 35H70ZM35 24.7199V35H45.2795L35 24.7199ZM69.9699 10.25L70 10.2199V0H59.7207L69.9699 10.25ZM35 0V10.2795L45.28 0H35Z" fill="#7142E1"/>
</g>
<g clip-path="url(#clip2_23_4155)">
<path d="M16.05 40.8993L11.6995 36.4804L0 48.1793V56.82L0.0305566 56.8504L16.05 40.8993ZM7.34658 52.4998L11.6964 48.15L21.8457 58.2993L17.496 62.649L7.34658 52.4998ZM21.8504 69.9694L5.89928 53.95L1.48039 58.3005L13.1794 70H21.8198L21.8504 69.9694ZM13.1495 35.0304L29.101 51.0503L33.5199 46.7L21.8209 35H13.1799L13.1495 35.0304ZM13.1469 46.7007L17.4967 42.351L27.6462 52.5003L23.2964 56.8501L13.1469 46.7007ZM23.3004 68.5195L35 56.8198V48.1198L18.95 64.1007L23.3004 68.5195ZM35 70V59.7198L24.7198 70H35ZM0 59.7199V70H10.2795L0 59.7199ZM34.9699 45.25L35 45.2199V35H24.7207L34.9699 45.25ZM0 35V45.2795L10.28 35H0Z" fill="#7142E1"/>
</g>
<g clip-path="url(#clip3_23_4155)">
<path d="M51.05 40.8993L46.6995 36.4804L35 48.1793V56.82L35.0306 56.8504L51.05 40.8993ZM42.3466 52.4998L46.6964 48.15L56.8457 58.2993L52.496 62.649L42.3466 52.4998ZM56.8504 69.9694L40.8993 53.95L36.4804 58.3005L48.1794 70H56.8198L56.8504 69.9694ZM48.1495 35.0304L64.101 51.0503L68.5199 46.7L56.8209 35H48.1799L48.1495 35.0304ZM48.1469 46.7007L52.4967 42.351L62.6462 52.5003L58.2964 56.8501L48.1469 46.7007ZM58.3004 68.5195L70 56.8198V48.1198L53.95 64.1007L58.3004 68.5195ZM70 70V59.7198L59.7198 70H70ZM35 59.7199V70H45.2795L35 59.7199ZM69.9699 45.25L70 45.2199V35H59.7207L69.9699 45.25ZM35 35V45.2795L45.28 35H35Z" fill="#7142E1"/>
</g>
<defs>
<clipPath id="clip0_23_4155">
<rect width="35" height="35" fill="white"/>
</clipPath>
<clipPath id="clip1_23_4155">
<rect width="35" height="35" fill="white" transform="translate(35)"/>
</clipPath>
<clipPath id="clip2_23_4155">
<rect width="35" height="35" fill="white" transform="translate(0 35)"/>
</clipPath>
<clipPath id="clip3_23_4155">
<rect width="35" height="35" fill="white" transform="translate(35 35)"/>
</clipPath>
</defs>
</svg>
